<svg width="24" height="25" viewBox="0 0 24 25" fill="none" xmlns="http://www.w3.org/2000/svg">
<path d="M6 7.53125H12V9.03125H6V7.53125ZM6 4.53125H15V6.03125H6V4.53125ZM6 1.53125H15V3.03125H6V1.53125Z" fill="#929EAE"/>
<path d="M3.53325 21.0312L7.7565 13.5343L13.332 18.4017C13.5005 18.5517 13.7007 18.6617 13.9177 18.7236C14.1346 18.7855 14.3628 18.7977 14.5851 18.7592C14.8074 18.7207 15.0181 18.6325 15.2016 18.5013C15.3851 18.3701 15.5367 18.1992 15.645 18.0012L20.8725 10.199L19.6268 9.3635L14.3768 17.1995L14.3243 17.2767L8.748 12.4093C8.57951 12.2601 8.37968 12.1508 8.16326 12.0892C7.94684 12.0277 7.71936 12.0155 7.49762 12.0537C7.27588 12.0919 7.06554 12.1793 6.88214 12.3097C6.69873 12.44 6.54695 12.6099 6.438 12.8068L3 18.9185V1.53125H1.5V21.0312C1.5 21.4291 1.65804 21.8106 1.93934 22.0919C2.22064 22.3732 2.60218 22.5312 3 22.5312H22.5V21.0312H3.53325Z" fill="#929EAE"/>
</svg>
