<svg width="26" height="26" viewBox="0 0 26 26" fill="none" xmlns="http://www.w3.org/2000/svg">
<path d="M20.5833 16.0006V8.41723L14.6249 4.24964L8.66658 8.41614V11.3325H7.58325V7.89723L14.6249 2.87598L21.6666 7.89614V15.9995L20.5833 16.0006ZM15.2706 9.14523H16.1459V8.26989H15.2706V9.14523ZM13.1039 9.14523H13.9792V8.26989H13.1039V9.14523ZM15.2706 11.3119H16.1459V10.4366H15.2706V11.3119ZM13.1039 11.3119H13.9792V10.4366H13.1039V11.3119ZM6.93758 20.2082L15.133 22.5991L21.6211 20.595C21.5994 20.2664 21.5012 20.0295 21.3264 19.8843C21.1502 19.7391 20.9512 19.6666 20.7295 19.6666H15.5891C15.1312 19.6666 14.7159 19.6485 14.3432 19.6124C13.9706 19.5763 13.5896 19.4903 13.2003 19.3546L10.8278 18.5767L11.194 17.5064L13.3877 18.2994C13.7359 18.4316 14.1316 18.511 14.5751 18.5377C15.0178 18.5637 15.6245 18.5789 16.3951 18.5832C16.3951 18.2452 16.333 17.9722 16.2087 17.7642C16.0845 17.5562 15.9065 17.4111 15.6747 17.3287L9.44116 15.0407C9.4 15.027 9.36172 15.0169 9.32633 15.0104C9.29094 15.0039 9.25303 15.0003 9.21258 14.9996H6.93758V20.2082ZM2.60425 22.7497V13.9162H9.18658C9.28769 13.9162 9.39169 13.9278 9.49858 13.9509C9.60547 13.974 9.70478 14.0007 9.7965 14.0311L16.0571 16.3245C16.4449 16.4718 16.7786 16.7365 17.0581 17.1186C17.3383 17.5006 17.4784 17.9888 17.4784 18.5832H20.7284C21.3813 18.5832 21.8811 18.7873 22.2277 19.1953C22.5751 19.6041 22.7488 20.1223 22.7488 20.7499V21.4161L15.1872 23.7496L6.9365 21.3446V22.7497H2.60425ZM3.68758 21.6664H5.85425V14.9996H3.68758V21.6664Z" fill="#A1A5C1"/>
</svg>
