<svg width="24" height="25" viewBox="0 0 24 25" fill="none" xmlns="http://www.w3.org/2000/svg">
<path d="M20 11.75C20.4142 11.75 20.75 12.0858 20.75 12.5C20.75 12.9142 20.4142 13.25 20 13.25H10.75L10.75 18.5C10.75 18.8034 10.5673 19.0768 10.287 19.1929C10.0068 19.309 9.68419 19.2449 9.46969 19.0304L3.46969 13.0304C3.32904 12.8897 3.25002 12.6989 3.25002 12.5C3.25002 12.3011 3.32904 12.1103 3.46969 11.9697L9.46969 5.96969C9.68419 5.75519 10.0068 5.69103 10.287 5.80711C10.5673 5.9232 10.75 6.19668 10.75 6.50002L10.75 11.75H20Z" fill="#1C274C"/>
</svg>
