<svg width="32" height="32" viewBox="0 0 32 32" fill="none" xmlns="http://www.w3.org/2000/svg">
<path d="M28.0695 3.93274H3.93086C1.91166 3.93594 0.276457 5.57221 0.275391 7.59141V21.1829C0.276457 23.2021 1.91166 24.8383 3.93086 24.8405H12.7917L9.60019 26.5333C8.65406 26.9727 9.31219 28.4202 10.2679 27.9871C10.3223 27.9455 15.9341 24.9909 16.0002 24.9471L21.6461 27.9477C21.7613 28.0095 21.8893 28.0415 22.0205 28.0415C22.8365 28.0746 23.1351 26.8906 22.4002 26.5333L19.2087 24.8405H28.0695C30.0877 24.8383 31.7229 23.2021 31.725 21.1839V7.59141C31.7239 5.57221 30.0887 3.93594 28.0695 3.93274ZM30.125 21.1818C30.125 22.3178 29.2055 23.2383 28.0695 23.2394H3.93086C2.79592 23.2383 1.87646 22.3178 1.87539 21.1829V7.59141C1.87539 6.45541 2.79486 5.53487 3.93086 5.53381H28.0695C29.2045 5.53487 30.1239 6.45541 30.125 7.59034V21.1818Z" fill="#7A7474"/>
<path d="M14.59 10.6923H8.56758C8.12598 10.6923 7.76758 11.0507 7.76758 11.4923C7.76758 11.9339 8.12598 12.2923 8.56758 12.2923H10.7788V17.28C10.7788 17.7216 11.1372 18.08 11.5788 18.08C12.0204 18.08 12.3788 17.7216 12.3788 17.28V12.2923H14.59C15.6364 12.288 15.6364 10.6976 14.59 10.6923Z" fill="#7A7474"/>
<path d="M23.7834 10.7732C23.3866 10.5791 22.9077 10.7444 22.7136 11.1412L20.6101 15.4527L18.5077 11.1391C18.0437 10.2004 16.6101 10.898 17.0666 11.8431L19.8912 17.6308C20.1664 18.2122 21.0528 18.2164 21.329 17.6308L24.1514 11.8431C24.3456 11.4463 24.1802 10.9674 23.7834 10.7732Z" fill="#7A7474"/>
</svg>
